<?xml version="1.0" standalone="yes"?>
<svg xmlns="http://www.w3.org/2000/svg" width="200" height="76">
<path style="fill:#fefefe; stroke:none;" d="M0 0L0 76L200 76L200 0L0 0z"/>
<path style="fill:#b9bbbe; stroke:none;" d="M12 18L13 19L12 18z"/>
<path style="fill:#9da0a3; stroke:none;" d="M13 18L13 19L16 19L13 18z"/>
<path style="fill:#b9bbbe; stroke:none;" d="M16 18L17 31L20 30L20 29L16 18M166 18L167 19L166 18z"/>
<path style="fill:#9da0a3; stroke:none;" d="M167 18L167 19L170 19L167 18z"/>
<path style="fill:#b9bbbe; stroke:none;" d="M170 18L173 31L170 18z"/>
<path style="fill:#6f7378; stroke:none;" d="M12 19C12 26.9075 8.0967 51.5246 15 56L15 55C8.06117 45.841 16.3649 29.4021 12 19z"/>
<path style="fill:#292f35; stroke:none;" d="M13 19L13 55C19.2936 53.7341 26.4745 58.1139 31.581 52.7215C37.1828 46.8059 36.2302 33.0298 27.9846 29.8974C23.7294 28.2809 19.9274 30.6059 16 32L16 19L13 19z"/>
<path style="fill:#6f7378; stroke:none;" d="M16 19L16 32L17 32L16 19M166 19L166 44C166 46.8097 165.057 52.0122 167.008 54.338C171.176 59.3034 171 39.8791 171 38L170 38L170 55L167 55C167 44.613 170.011 28.5596 166 19z"/>
<path style="fill:#292f35; stroke:none;" d="M167 19L167 55L170 55C170 49.5246 168.718 42.052 171.318 37.044C173.813 32.2385 180.053 30.7391 182.972 36.0586C185.64 40.9207 184 49.5834 184 55L188 55C188 39.9632 188.877 25.7203 170 32L170 19L167 19z"/>
<path style="fill:#6f7378; stroke:none;" d="M170 19L170 32L171 32L170 19z"/>
<path style="fill:#b9bbbe; stroke:none;" d="M21.6667 28.3333L22.3333 28.6667L21.6667 28.3333z"/>
<path style="fill:#9da0a3; stroke:none;" d="M23 28L23 29L26 29L23 28z"/>
<path style="fill:#b9bbbe; stroke:none;" d="M26.6667 28.3333L27.3333 28.6667L26.6667 28.3333M50.6667 28.3333L51.3333 28.6667L50.6667 28.3333z"/>
<path style="fill:#9da0a3; stroke:none;" d="M52 28L52 29L55 29L52 28z"/>
<path style="fill:#b9bbbe; stroke:none;" d="M55.6667 28.3333L56.3333 28.6667L55.6667 28.3333M69 28L70 29L69 28z"/>
<path style="fill:#9da0a3; stroke:none;" d="M69 29L69 30L73 29L69 29z"/>
<path style="fill:#b9bbbe; stroke:none;" d="M73 28L75 30L73 28M85 28L84 31L85 31L85 28z"/>
<path style="fill:#9da0a3; stroke:none;" d="M86 28L86 29L90 29L86 28z"/>
<path style="fill:#b9bbbe; stroke:none;" d="M90 28L91 31L92 31L90 28M102 28L101 31L102 31L102 28z"/>
<path style="fill:#9da0a3; stroke:none;" d="M103 28L103 29L106 29L103 28z"/>
<path style="fill:#b9bbbe; stroke:none;" d="M106 28L107 29L106 28M119.667 28.3333L120.333 28.6667L119.667 28.3333z"/>
<path style="fill:#9da0a3; stroke:none;" d="M121 28L121 29L125 29L121 28z"/>
<path style="fill:#b9bbbe; stroke:none;" d="M125.667 28.3333L126.333 28.6667L125.667 28.3333M146.667 28.3333L147.333 28.6667L146.667 28.3333z"/>
<path style="fill:#9da0a3; stroke:none;" d="M148 28L148 29L152 29L148 28z"/>
<path style="fill:#b9bbbe; stroke:none;" d="M152.667 28.3333L153.333 28.6667L152.667 28.3333M176.667 28.3333L177.333 28.6667L176.667 28.3333z"/>
<path style="fill:#9da0a3; stroke:none;" d="M178 28L178 29L181 29L178 28z"/>
<path style="fill:#b9bbbe; stroke:none;" d="M181.667 28.3333L182.333 28.6667L181.667 28.3333z"/>
<path style="fill:#9da0a3; stroke:none;" d="M20 29L21 30L20 29z"/>
<path style="fill:#6f7378; stroke:none;" d="M21 29L22 30L21 29M27.6667 29.3333L28.3333 29.6667L27.6667 29.3333z"/>
<path style="fill:#b9bbbe; stroke:none;" d="M29 29L30 30L29 29M47 29L48 30L47 29z"/>
<path style="fill:#9da0a3; stroke:none;" d="M48 29L49 30L48 29z"/>
<path style="fill:#6f7378; stroke:none;" d="M49.6667 29.3333L50.3333 29.6667L49.6667 29.3333z"/>
<path style="fill:#292f35; stroke:none;" d="M51.0008 29.5478C36.3982 32.7268 40.2182 59.1531 55.9961 55.463C70.1648 52.1491 66.3571 26.2048 51.0008 29.5478z"/>
<path style="fill:#6f7378; stroke:none;" d="M56.6667 29.3333L57.3333 29.6667L56.6667 29.3333z"/>
<path style="fill:#9da0a3; stroke:none;" d="M58 29L59 30L58 29z"/>
<path style="fill:#b9bbbe; stroke:none;" d="M59 29L61 31L59 29z"/>
<path style="fill:#292f35; stroke:none;" d="M70 29C71.5769 36.6401 72.6452 54.2716 82 55L87 33C92.872 39.1892 89.7278 54.2002 100 55L106 29C97.8404 31.6994 101.43 46.2111 96 52C95.5572 48.7117 91.7382 26.6387 86.7083 30.0864C81.8309 33.4296 81.6498 46.7213 79 52L74 29L70 29z"/>
<path style="fill:#6f7378; stroke:none;" d="M85.3333 29.6667L85.6667 30.3333L85.3333 29.6667M90 29L91 30L90 29M102 29L103 30L102 29M106 29L107 30L106 29z"/>
<path style="fill:#b9bbbe; stroke:none;" d="M117 29L118 30L117 29z"/>
<path style="fill:#9da0a3; stroke:none;" d="M118 29L119 30L118 29z"/>
<path style="fill:#6f7378; stroke:none;" d="M119 29L120 30L119 29z"/>
<path style="fill:#292f35; stroke:none;" d="M120.001 29.5764C105.522 33.554 110.136 59.8381 125.996 55.4236C139.643 51.6251 135.188 25.404 120.001 29.5764z"/>
<path style="fill:#6f7378; stroke:none;" d="M126 29L127 30L126 29z"/>
<path style="fill:#9da0a3; stroke:none;" d="M127 29L128 30L127 29z"/>
<path style="fill:#b9bbbe; stroke:none;" d="M128 29L129 30L128 29M144 29L145 30L144 29z"/>
<path style="fill:#9da0a3; stroke:none;" d="M145 29L146 30L145 29z"/>
<path style="fill:#6f7378; stroke:none;" d="M146 29L147 30L146 29z"/>
<path style="fill:#292f35; stroke:none;" d="M141 52C144.618 57.9136 157.572 57.1319 158.338 48.9992C158.689 45.2732 136.146 31.1206 151.995 32.419C154.112 32.5924 155.865 33.0665 158 33C154.309 27.6125 141.457 27.5342 141.457 35.9892C141.457 39.6006 164.154 54.0032 147.005 52.6952C144.998 52.5422 143.011 52.1587 141 52z"/>
<path style="fill:#6f7378; stroke:none;" d="M153 29L154 30L153 29z"/>
<path style="fill:#9da0a3; stroke:none;" d="M154 29L155 30L154 29z"/>
<path style="fill:#b9bbbe; stroke:none;" d="M155.667 29.3333L156.333 29.6667L155.667 29.3333M174 29L175 30L174 29z"/>
<path style="fill:#9da0a3; stroke:none;" d="M175 29L176 30L175 29z"/>
<path style="fill:#6f7378; stroke:none;" d="M176 29L177 30L176 29M182 29L183 30L182 29z"/>
<path style="fill:#9da0a3; stroke:none;" d="M183 29L184 30L183 29z"/>
<path style="fill:#b9bbbe; stroke:none;" d="M184 29L188 33L184 29z"/>
<path style="fill:#6f7378; stroke:none;" d="M19 30L20 31L19 30M30 30L33 33L30 30z"/>
<path style="fill:#b9bbbe; stroke:none;" d="M31 30L32 31L31 30z"/>
<path style="fill:#9da0a3; stroke:none;" d="M46 30L47 31L46 30z"/>
<path style="fill:#6f7378; stroke:none;" d="M47 30L48 31L47 30M59 30L60 31L59 30z"/>
<path style="fill:#b9bbbe; stroke:none;" d="M69.3333 30.6667L69.6667 31.3333L69.3333 30.6667z"/>
<path style="fill:#9da0a3; stroke:none;" d="M74 30L75 31L74 30M106 30L107 31L106 30z"/>
<path style="fill:#b9bbbe; stroke:none;" d="M115 30L112 34L115 30z"/>
<path style="fill:#6f7378; stroke:none;" d="M116 30L117 31L116 30M128 30L129 31L128 30z"/>
<path style="fill:#9da0a3; stroke:none;" d="M129 30L130 31L129 30z"/>
<path style="fill:#b9bbbe; stroke:none;" d="M130 30L133 33L130 30z"/>
<path style="fill:#9da0a3; stroke:none;" d="M143 30L144 31L143 30z"/>
<path style="fill:#6f7378; stroke:none;" d="M156 30L157 31L156 30z"/>
<path style="fill:#9da0a3; stroke:none;" d="M157 30L158 33L159 33L157 30z"/>
<path style="fill:#b9bbbe; stroke:none;" d="M158 30L159 31L158 30z"/>
<path style="fill:#9da0a3; stroke:none;" d="M173 30L174 31L173 30z"/>
<path style="fill:#6f7378; stroke:none;" d="M184 30L185 31L184 30z"/>
<path style="fill:#9da0a3; stroke:none;" d="M17 31L18 32L17 31z"/>
<path style="fill:#6f7378; stroke:none;" d="M18 31L19 32L18 31z"/>
<path style="fill:#b9bbbe; stroke:none;" d="M32 31L33 32L32 31M44 31L45 32L44 31z"/>
<path style="fill:#6f7378; stroke:none;" d="M45 31L46 32L45 31M60 31L61 32L60 31z"/>
<path style="fill:#9da0a3; stroke:none;" d="M61 31L62 32L61 31z"/>
<path style="fill:#6f7378; stroke:none;" d="M70.3333 31.6667L70.6667 32.3333L70.3333 31.6667M74 31L74 34L75 34L74 31z"/>
<path style="fill:#9da0a3; stroke:none;" d="M84 31L85 32L84 31M91 31L92 32L91 31M101 31L102 32L101 31z"/>
<path style="fill:#6f7378; stroke:none;" d="M105 31L105 34L106 34L105 31z"/>
<path style="fill:#b9bbbe; stroke:none;" d="M106.333 31.6667L106.667 32.3333L106.333 31.6667z"/>
<path style="fill:#6f7378; stroke:none;" d="M115 31L116 32L115 31M130 31L131 32L130 31M142 31L143 32L142 31z"/>
<path style="fill:#9da0a3; stroke:none;" d="M171 31L172 32L171 31z"/>
<path style="fill:#6f7378; stroke:none;" d="M172 31L173 32L172 31M185 31L186 32L185 31M21 32L21 33L27 33L21 32z"/>
<path style="fill:#b9bbbe; stroke:none;" d="M33 32L34 33L33 32z"/>
<path style="fill:#9da0a3; stroke:none;" d="M44 32L45 33L44 32z"/>
<path style="fill:#6f7378; stroke:none;" d="M49 33L49 34L60 36C56.8125 32.1732 53.7107 31.6242 49 33z"/>
<path style="fill:#9da0a3; stroke:none;" d="M62 32L63 33L62 32z"/>
<path style="fill:#b9bbbe; stroke:none;" d="M75 32L75 35L76 35L75 32z"/>
<path style="fill:#6f7378; stroke:none;" d="M84 32L84 35L85 35L84 32M91.3333 32.6667L91.6667 33.3333L91.3333 32.6667M101 32L101 35L102 35L101 32M114 32L115 33L114 32M120 32L120 33L126 33L120 32M131 32L132 33L131 32z"/>
<path style="fill:#9da0a3; stroke:none;" d="M141 32L142 33L141 32z"/>
<path style="fill:#6f7378; stroke:none;" d="M147 32L147 33L154 33L147 32M175 32L175 33L182 34L175 32M186 32L187 33L186 32M19 33L17 36L19 33z"/>
<path style="fill:#9da0a3; stroke:none;" d="M20 33L21 34L20 33z"/>
<path style="fill:#b9bbbe; stroke:none;" d="M21 33L22 34L21 33z"/>
<path style="fill:#fefefe; stroke:none;" d="M22.0579 33.7616C15.02 36.388 16.3976 55.0067 25.892 51.3812C33.2841 48.5584 31.2819 30.3192 22.0579 33.7616z"/>
<path style="fill:#9da0a3; stroke:none;" d="M27 33L28 34L27 33z"/>
<path style="fill:#6f7378; stroke:none;" d="M28 33L30 35L28 33z"/>
<path style="fill:#9da0a3; stroke:none;" d="M33 33L34 34L33 33M43 33L44 34L43 33z"/>
<path style="fill:#b9bbbe; stroke:none;" d="M50 33L51 34L50 33z"/>
<path style="fill:#fefefe; stroke:none;" d="M51.108 33.7577C42.8653 37.0247 45.9304 55.5057 55.7863 51.2531C63.2454 48.0346 60.6491 29.9761 51.108 33.7577z"/>
<path style="fill:#b9bbbe; stroke:none;" d="M56 33L57 34L56 33z"/>
<path style="fill:#6f7378; stroke:none;" d="M62 33L63 36L64 36L62 33z"/>
<path style="fill:#b9bbbe; stroke:none;" d="M63 33L64 34L63 33z"/>
<path style="fill:#9da0a3; stroke:none;" d="M70 33L71 34L70 33z"/>
<path style="fill:#b9bbbe; stroke:none;" d="M83.3333 33.6667L83.6667 34.3333L83.3333 33.6667z"/>
<path style="fill:#6f7378; stroke:none;" d="M87.6667 33.3333L88.3333 33.6667L87.6667 33.3333z"/>
<path style="fill:#b9bbbe; stroke:none;" d="M92 33L93 34L92 33M100.333 33.6667L100.667 34.3333L100.333 33.6667z"/>
<path style="fill:#6f7378; stroke:none;" d="M113 33L114 34L113 33M118 33L116 36L118 33z"/>
<path style="fill:#9da0a3; stroke:none;" d="M119 33L120 34L119 33z"/>
<path style="fill:#b9bbbe; stroke:none;" d="M120 33L121 34L120 33z"/>
<path style="fill:#fefefe; stroke:none;" d="M121.043 33.7863C112.658 36.66 115.209 55.0803 124.892 51.2423C132.54 48.2109 130.34 30.6004 121.043 33.7863z"/>
<path style="fill:#b9bbbe; stroke:none;" d="M125 33L126 34L125 33z"/>
<path style="fill:#9da0a3; stroke:none;" d="M126 33L127 34L126 33z"/>
<path style="fill:#6f7378; stroke:none;" d="M127 33L129 35L127 33z"/>
<path style="fill:#9da0a3; stroke:none;" d="M132 33L133 34L132 33z"/>
<path style="fill:#b9bbbe; stroke:none;" d="M140.333 33.6667L140.667 34.3333L140.333 33.6667z"/>
<path style="fill:#6f7378; stroke:none;" d="M141 33L142 34L141 33z"/>
<path style="fill:#9da0a3; stroke:none;" d="M146 33L147 34L146 33z"/>
<path style="fill:#b9bbbe; stroke:none;" d="M147 33L148 34L147 33M153 33L154 34L153 33z"/>
<path style="fill:#9da0a3; stroke:none;" d="M154 33L155 34L154 33z"/>
<path style="fill:#6f7378; stroke:none;" d="M155 33L156 34L155 33M157 33L158 34L157 33z"/>
<path style="fill:#b9bbbe; stroke:none;" d="M158 33L159 34L158 33z"/>
<path style="fill:#6f7378; stroke:none;" d="M173 33L171 37L172 37L173 33z"/>
<path style="fill:#b9bbbe; stroke:none;" d="M174 33L175 34L174 33M180 33L181 34L180 33z"/>
<path style="fill:#9da0a3; stroke:none;" d="M187 33L188 34L187 33z"/>
<path style="fill:#b9bbbe; stroke:none;" d="M19 34L20 35L19 34M28 34L29 35L28 34z"/>
<path style="fill:#6f7378; stroke:none;" d="M33 34L34 35L33 34z"/>
<path style="fill:#b9bbbe; stroke:none;" d="M34 34L35 35L34 34M42 34L43 35L42 34z"/>
<path style="fill:#6f7378; stroke:none;" d="M43 34L44 35L43 34z"/>
<path style="fill:#9da0a3; stroke:none;" d="M48 34L49 35L48 34z"/>
<path style="fill:#b9bbbe; stroke:none;" d="M70.3333 34.6667L70.6667 35.3333L70.3333 34.6667z"/>
<path style="fill:#9da0a3; stroke:none;" d="M87.6667 34.3333L88.3333 34.6667L87.6667 34.3333M92 34L93 35L92 34M105 34L106 35L105 34M112 34L113 35L112 34z"/>
<path style="fill:#b9bbbe; stroke:none;" d="M118 34L119 35L118 34M127 34L128 35L127 34z"/>
<path style="fill:#6f7378; stroke:none;" d="M132 34L133 37L134 37L132 34z"/>
<path style="fill:#b9bbbe; stroke:none;" d="M133 34L134 35L133 34z"/>
<path style="fill:#9da0a3; stroke:none;" d="M145 34L146 35L145 34z"/>
<path style="fill:#b9bbbe; stroke:none;" d="M156.667 34.3333L157.333 34.6667L156.667 34.3333M173 34L174 35L173 34z"/>
<path style="fill:#6f7378; stroke:none;" d="M182 34L183 37L184 37L182 34M187 34L187 38L188 38L187 34z"/>
<path style="fill:#b9bbbe; stroke:none;" d="M18 35L19 36L18 35z"/>
<path style="fill:#9da0a3; stroke:none;" d="M29 35L30 36L29 35M34 35L35 36L34 35M42 35L43 36L42 35z"/>
<path style="fill:#6f7378; stroke:none;" d="M47 35L46 37L47 35z"/>
<path style="fill:#b9bbbe; stroke:none;" d="M58 35L59 36L58 35M64 35L65 36L64 35z"/>
<path style="fill:#6f7378; stroke:none;" d="M71.3333 35.6667L71.6667 36.3333L71.3333 35.6667z"/>
<path style="fill:#9da0a3; stroke:none;" d="M75 35L76 36L75 35M83 35L84 36L83 35z"/>
<path style="fill:#b9bbbe; stroke:none;" d="M87 35L87 37L89 37L89 35L87 35z"/>
<path style="fill:#6f7378; stroke:none;" d="M89.3333 35.6667L89.6667 36.3333L89.3333 35.6667M92 35L92 38L93 38L92 35z"/>
<path style="fill:#9da0a3; stroke:none;" d="M100.333 35.6667L100.667 36.3333L100.333 35.6667z"/>
<path style="fill:#6f7378; stroke:none;" d="M104 35L104 38L105 38L104 35z"/>
<path style="fill:#b9bbbe; stroke:none;" d="M105.333 35.6667L105.667 36.3333L105.333 35.6667M111 35L112 36L111 35z"/>
<path style="fill:#6f7378; stroke:none;" d="M112 35L113 36L112 35z"/>
<path style="fill:#b9bbbe; stroke:none;" d="M117 35L118 36L117 35z"/>
<path style="fill:#9da0a3; stroke:none;" d="M128 35L129 36L128 35M140.333 35.6667L140.667 36.3333L140.333 35.6667z"/>
<path style="fill:#6f7378; stroke:none;" d="M144 35L145 36L144 35z"/>
<path style="fill:#b9bbbe; stroke:none;" d="M145.333 35.6667L145.667 36.3333L145.333 35.6667M172 35L173 36L172 35M182 35L183 36L182 35M188 35L188 56L189 56L188 35z"/>
<path style="fill:#9da0a3; stroke:none;" d="M17 36L18 37L17 36z"/>
<path style="fill:#b9bbbe; stroke:none;" d="M29 36L30 37L29 36z"/>
<path style="fill:#6f7378; stroke:none;" d="M30 36L31 37L30 36M34.3333 36.6667L34.6667 37.3333L34.3333 36.6667z"/>
<path style="fill:#b9bbbe; stroke:none;" d="M35.3333 36.6667L35.6667 37.3333L35.3333 36.6667M41.3333 36.6667L41.6667 37.3333L41.3333 36.6667z"/>
<path style="fill:#6f7378; stroke:none;" d="M42 36L43 37L42 36z"/>
<path style="fill:#b9bbbe; stroke:none;" d="M47 36L48 37L47 36z"/>
<path style="fill:#9da0a3; stroke:none;" d="M59 36L60 37L59 36M64 36L65 37L64 36z"/>
<path style="fill:#6f7378; stroke:none;" d="M75 36L75 39L76 39L75 36M83.3333 36.6667L83.6667 37.3333L83.3333 36.6667M86.3333 36.6667L86.6667 37.3333L86.3333 36.6667z"/>
<path style="fill:#b9bbbe; stroke:none;" d="M93.3333 36.6667L93.6667 37.3333L93.3333 36.6667z"/>
<path style="fill:#9da0a3; stroke:none;" d="M111 36L112 37L111 36M116 36L117 37L116 36z"/>
<path style="fill:#b9bbbe; stroke:none;" d="M128 36L129 37L128 36z"/>
<path style="fill:#6f7378; stroke:none;" d="M129 36L130 37L129 36z"/>
<path style="fill:#b9bbbe; stroke:none;" d="M134 36L135 37L134 36z"/>
<path style="fill:#6f7378; stroke:none;" d="M16 37L16 48L17 48L16 37z"/>
<path style="fill:#b9bbbe; stroke:none;" d="M17 37L18 50L19 50L17 37z"/>
<path style="fill:#9da0a3; stroke:none;" d="M30 37L31 38L30 37M46 37L47 38L46 37z"/>
<path style="fill:#b9bbbe; stroke:none;" d="M59 37L60 38L59 37z"/>
<path style="fill:#6f7378; stroke:none;" d="M60.3333 37.6667L60.6667 38.3333L60.3333 37.6667M64.3333 37.6667L64.6667 38.3333L64.3333 37.6667z"/>
<path style="fill:#9da0a3; stroke:none;" d="M71 37L72 38L71 37z"/>
<path style="fill:#b9bbbe; stroke:none;" d="M76.3333 37.6667L76.6667 38.3333L76.3333 37.6667M82.3333 37.6667L82.6667 38.3333L82.3333 37.6667z"/>
<path style="fill:#9da0a3; stroke:none;" d="M89.3333 37.6667L89.6667 38.3333L89.3333 37.6667z"/>
<path style="fill:#6f7378; stroke:none;" d="M100.333 37.6667L100.667 38.3333L100.333 37.6667M111 37L111 40L112 40L111 37M115.333 37.6667L115.667 38.3333L115.333 37.6667z"/>
<path style="fill:#b9bbbe; stroke:none;" d="M116 37L117 38L116 37z"/>
<path style="fill:#9da0a3; stroke:none;" d="M129 37L130 38L129 37M134.333 37.6667L134.667 38.3333L134.333 37.6667z"/>
<path style="fill:#b9bbbe; stroke:none;" d="M140.333 37.6667L140.667 38.3333L140.333 37.6667z"/>
<path style="fill:#6f7378; stroke:none;" d="M145 37L146 38L145 37z"/>
<path style="fill:#9da0a3; stroke:none;" d="M171 37L172 38L171 37M183 37L184 56L185 56L183 37z"/>
<path style="fill:#b9bbbe; stroke:none;" d="M30 38L30 42L31 42L30 38z"/>
<path style="fill:#9da0a3; stroke:none;" d="M35 38L35 41L36 41L35 38M41 38L42 39L41 38z"/>
<path style="fill:#b9bbbe; stroke:none;" d="M46 38L46 41L47 41L46 38M65.3333 38.6667L65.6667 39.3333L65.3333 38.6667M71.3333 38.6667L71.6667 39.3333L71.3333 38.6667z"/>
<path style="fill:#9da0a3; stroke:none;" d="M86 38L87 39L86 38M93 38L94 39L93 38z"/>
<path style="fill:#b9bbbe; stroke:none;" d="M99.3333 38.6667L99.6667 39.3333L99.3333 38.6667z"/>
<path style="fill:#9da0a3; stroke:none;" d="M104 38L105 39L104 38z"/>
<path style="fill:#b9bbbe; stroke:none;" d="M110 38L110 41L111 41L110 38M129 38L129 41L130 41L129 38z"/>
<path style="fill:#6f7378; stroke:none;" d="M130 38L130 47L131 47L130 38M141 38L142 39L141 38M146 38L148 40L146 38z"/>
<path style="fill:#b9bbbe; stroke:none;" d="M147 38L148 39L147 38M171 38L171 55L172 55L171 38z"/>
<path style="fill:#6f7378; stroke:none;" d="M31 39L31 46L32 46L31 39M41 39L41 46L42 46L41 39M45 39L45 47L46 47L45 39z"/>
<path style="fill:#9da0a3; stroke:none;" d="M60.3333 39.6667L60.6667 40.3333L60.3333 39.6667z"/>
<path style="fill:#6f7378; stroke:none;" d="M72.3333 39.6667L72.6667 40.3333L72.3333 39.6667z"/>
<path style="fill:#9da0a3; stroke:none;" d="M76.3333 39.6667L76.6667 40.3333L76.3333 39.6667M82 39L83 40L82 39z"/>
<path style="fill:#b9bbbe; stroke:none;" d="M86.3333 39.6667L86.6667 40.3333L86.3333 39.6667M89.3333 39.6667L89.6667 40.3333L89.3333 39.6667z"/>
<path style="fill:#6f7378; stroke:none;" d="M90.3333 39.6667L90.6667 40.3333L90.3333 39.6667M93.3333 39.6667L93.6667 40.3333L93.3333 39.6667M103 39L103 42L104 42L103 39z"/>
<path style="fill:#b9bbbe; stroke:none;" d="M104.333 39.6667L104.667 40.3333L104.333 39.6667z"/>
<path style="fill:#9da0a3; stroke:none;" d="M115.333 39.6667L115.667 40.3333L115.333 39.6667z"/>
<path style="fill:#6f7378; stroke:none;" d="M134 39L134 46L135 46L134 39z"/>
<path style="fill:#9da0a3; stroke:none;" d="M141 39L142 40L141 39M148 39L149 40L148 39z"/>
<path style="fill:#b9bbbe; stroke:none;" d="M149 39L150 40L149 39z"/>
<path style="fill:#9da0a3; stroke:none;" d="M65 40L65 45L66 45L65 40z"/>
<path style="fill:#6f7378; stroke:none;" d="M82.3333 40.6667L82.6667 41.3333L82.3333 40.6667M85.3333 40.6667L85.6667 41.3333L85.3333 40.6667z"/>
<path style="fill:#b9bbbe; stroke:none;" d="M94.3333 40.6667L94.6667 41.3333L94.3333 40.6667z"/>
<path style="fill:#9da0a3; stroke:none;" d="M99 40L100 41L99 40z"/>
<path style="fill:#b9bbbe; stroke:none;" d="M135 40L135 45L136 45L135 40M141 40L143 42L141 40z"/>
<path style="fill:#6f7378; stroke:none;" d="M142 40L143 41L142 40M150 40L151 41L150 40z"/>
<path style="fill:#9da0a3; stroke:none;" d="M151 40L152 41L151 40z"/>
<path style="fill:#b9bbbe; stroke:none;" d="M152 40L153 41L152 40z"/>
<path style="fill:#6f7378; stroke:none;" d="M35 41L35 44L36 44L35 41z"/>
<path style="fill:#b9bbbe; stroke:none;" d="M40 41L40 44L41 44L40 41M60 41L60 44L61 44L60 41z"/>
<path style="fill:#9da0a3; stroke:none;" d="M72 41L73 42L72 41z"/>
<path style="fill:#6f7378; stroke:none;" d="M76 41L76 44L77 44L76 41z"/>
<path style="fill:#b9bbbe; stroke:none;" d="M81.3333 41.6667L81.6667 42.3333L81.3333 41.6667z"/>
<path style="fill:#9da0a3; stroke:none;" d="M90.3333 41.6667L90.6667 42.3333L90.3333 41.6667z"/>
<path style="fill:#6f7378; stroke:none;" d="M99 41L99 44L100 44L99 41z"/>
<path style="fill:#9da0a3; stroke:none;" d="M110 41L110 44L111 44L110 41z"/>
<path style="fill:#b9bbbe; stroke:none;" d="M115 41L115 44L116 44L115 41z"/>
<path style="fill:#9da0a3; stroke:none;" d="M143 41L144 42L143 41z"/>
<path style="fill:#6f7378; stroke:none;" d="M144 41L147 43L147 42L144 41M152 41L153 42L152 41z"/>
<path style="fill:#9da0a3; stroke:none;" d="M153 41L154 42L153 41z"/>
<path style="fill:#b9bbbe; stroke:none;" d="M154 41L155 42L154 41M72.3333 42.6667L72.6667 43.3333L72.3333 42.6667M77.3333 42.6667L77.6667 43.3333L77.3333 42.6667z"/>
<path style="fill:#9da0a3; stroke:none;" d="M85 42L86 43L85 42M94 42L95 43L94 42z"/>
<path style="fill:#b9bbbe; stroke:none;" d="M98 42L98 45L99 45L98 42z"/>
<path style="fill:#9da0a3; stroke:none;" d="M103 42L104 43L103 42z"/>
<path style="fill:#b9bbbe; stroke:none;" d="M144 42L145 43L144 42z"/>
<path style="fill:#6f7378; stroke:none;" d="M154 42L155 43L154 42z"/>
<path style="fill:#9da0a3; stroke:none;" d="M155 42L156 43L155 42z"/>
<path style="fill:#b9bbbe; stroke:none;" d="M156 42L159 45L156 42M30 43L30 47L31 47L30 43z"/>
<path style="fill:#6f7378; stroke:none;" d="M73.3333 43.6667L73.6667 44.3333L73.3333 43.6667z"/>
<path style="fill:#9da0a3; stroke:none;" d="M81 43L82 44L81 43z"/>
<path style="fill:#b9bbbe; stroke:none;" d="M85.3333 43.6667L85.6667 44.3333L85.3333 43.6667M90 43L91 44L90 43z"/>
<path style="fill:#6f7378; stroke:none;" d="M91.3333 43.6667L91.6667 44.3333L91.3333 43.6667M94.3333 43.6667L94.6667 44.3333L94.3333 43.6667M102 43L102 46L103 46L102 43z"/>
<path style="fill:#b9bbbe; stroke:none;" d="M103.333 43.6667L103.667 44.3333L103.333 43.6667M146 43L147 44L146 43z"/>
<path style="fill:#9da0a3; stroke:none;" d="M147 43L148 44L147 43z"/>
<path style="fill:#6f7378; stroke:none;" d="M148 43L149 44L148 43M156 43L157 44L156 43z"/>
<path style="fill:#9da0a3; stroke:none;" d="M35 44L35 47L36 47L35 44M60.3333 44.6667L60.6667 45.3333L60.3333 44.6667M77.3333 44.6667L77.6667 45.3333L77.3333 44.6667z"/>
<path style="fill:#6f7378; stroke:none;" d="M81.3333 44.6667L81.6667 45.3333L81.3333 44.6667M84.3333 44.6667L84.6667 45.3333L84.3333 44.6667z"/>
<path style="fill:#b9bbbe; stroke:none;" d="M95.3333 44.6667L95.6667 45.3333L95.3333 44.6667M110 44L110 48L111 48L110 44z"/>
<path style="fill:#9da0a3; stroke:none;" d="M115.333 44.6667L115.667 45.3333L115.333 44.6667z"/>
<path style="fill:#b9bbbe; stroke:none;" d="M129 44L129 47L130 47L129 44M149 44L150 45L149 44z"/>
<path style="fill:#6f7378; stroke:none;" d="M150 44L150 45L153 46L150 44M157 44L158 45L157 44z"/>
<path style="fill:#b9bbbe; stroke:none;" d="M46.3333 45.6667L46.6667 46.3333L46.3333 45.6667M65 45L65 48L66 48L65 45z"/>
<path style="fill:#9da0a3; stroke:none;" d="M73 45L74 46L73 45z"/>
<path style="fill:#b9bbbe; stroke:none;" d="M80.3333 45.6667L80.6667 46.3333L80.3333 45.6667z"/>
<path style="fill:#9da0a3; stroke:none;" d="M91 45L92 46L91 45M98.3333 45.6667L98.6667 46.3333L98.3333 45.6667z"/>
<path style="fill:#b9bbbe; stroke:none;" d="M151 45L152 46L151 45z"/>
<path style="fill:#6f7378; stroke:none;" d="M158.333 45.6667L158.667 46.3333L158.333 45.6667z"/>
<path style="fill:#9da0a3; stroke:none;" d="M41 46L42 47L41 46z"/>
<path style="fill:#6f7378; stroke:none;" d="M60.3333 46.6667L60.6667 47.3333L60.3333 46.6667M64.3333 46.6667L64.6667 47.3333L64.3333 46.6667z"/>
<path style="fill:#b9bbbe; stroke:none;" d="M73.3333 46.6667L73.6667 47.3333L73.3333 46.6667z"/>
<path style="fill:#6f7378; stroke:none;" d="M77.3333 46.6667L77.6667 47.3333L77.3333 46.6667z"/>
<path style="fill:#9da0a3; stroke:none;" d="M84 46L85 47L84 46z"/>
<path style="fill:#b9bbbe; stroke:none;" d="M91.3333 46.6667L91.6667 47.3333L91.3333 46.6667z"/>
<path style="fill:#9da0a3; stroke:none;" d="M95 46L96 47L95 46M102 46L103 47L102 46z"/>
<path style="fill:#6f7378; stroke:none;" d="M111.333 46.6667L111.667 47.3333L111.333 46.6667M115.333 46.6667L115.667 47.3333L115.333 46.6667z"/>
<path style="fill:#9da0a3; stroke:none;" d="M134.333 46.6667L134.667 47.3333L134.333 46.6667M153 46L154 47L153 46z"/>
<path style="fill:#b9bbbe; stroke:none;" d="M159 46L159 51L160 51L159 46z"/>
<path style="fill:#9da0a3; stroke:none;" d="M30 47L31 48L30 47z"/>
<path style="fill:#6f7378; stroke:none;" d="M34.3333 47.6667L34.6667 48.3333L34.3333 47.6667z"/>
<path style="fill:#b9bbbe; stroke:none;" d="M35.3333 47.6667L35.6667 48.3333L35.3333 47.6667M41.3333 47.6667L41.6667 48.3333L41.3333 47.6667z"/>
<path style="fill:#9da0a3; stroke:none;" d="M46 47L47 48L46 47z"/>
<path style="fill:#b9bbbe; stroke:none;" d="M59 47L60 48L59 47z"/>
<path style="fill:#6f7378; stroke:none;" d="M74.3333 47.6667L74.6667 48.3333L74.3333 47.6667z"/>
<path style="fill:#b9bbbe; stroke:none;" d="M78 47L80 50L78 47z"/>
<path style="fill:#9da0a3; stroke:none;" d="M80 47L81 48L80 47z"/>
<path style="fill:#6f7378; stroke:none;" d="M83.3333 47.6667L83.6667 48.3333L83.3333 47.6667z"/>
<path style="fill:#b9bbbe; stroke:none;" d="M84.3333 47.6667L84.6667 48.3333L84.3333 47.6667z"/>
<path style="fill:#6f7378; stroke:none;" d="M92.3333 47.6667L92.6667 48.3333L92.3333 47.6667M95.3333 47.6667L95.6667 48.3333L95.3333 47.6667M98 47L98 50L99 50L98 47M101.333 47.6667L101.667 48.3333L101.333 47.6667z"/>
<path style="fill:#b9bbbe; stroke:none;" d="M102.333 47.6667L102.667 48.3333L102.333 47.6667M116 47L118 50L116 47z"/>
<path style="fill:#9da0a3; stroke:none;" d="M129 47L130 48L129 47M154 47L154 50L155 50L154 47z"/>
<path style="fill:#b9bbbe; stroke:none;" d="M29 48L30 49L29 48z"/>
<path style="fill:#6f7378; stroke:none;" d="M30 48L31 49L30 48M42 48L44 51L42 48M46 48L47 49L46 48z"/>
<path style="fill:#9da0a3; stroke:none;" d="M59 48L60 49L59 48M64 48L65 49L64 48z"/>
<path style="fill:#6f7378; stroke:none;" d="M80.3333 48.6667L80.6667 49.3333L80.3333 48.6667z"/>
<path style="fill:#b9bbbe; stroke:none;" d="M96 48L96 50L98 50L98 48L96 48z"/>
<path style="fill:#9da0a3; stroke:none;" d="M111 48L112 49L111 48z"/>
<path style="fill:#b9bbbe; stroke:none;" d="M128 48L129 49L128 48z"/>
<path style="fill:#6f7378; stroke:none;" d="M129 48L130 49L129 48M133 48L132 51L133 48z"/>
<path style="fill:#b9bbbe; stroke:none;" d="M134 48L135 49L134 48z"/>
<path style="fill:#6f7378; stroke:none;" d="M17 49L18 50L17 49z"/>
<path style="fill:#9da0a3; stroke:none;" d="M29 49L30 50L29 49M34 49L35 50L34 49M47 49L48 50L47 49z"/>
<path style="fill:#b9bbbe; stroke:none;" d="M58 49L59 50L58 49z"/>
<path style="fill:#6f7378; stroke:none;" d="M59 49L60 50L59 49M63 49L62 52L63 49z"/>
<path style="fill:#b9bbbe; stroke:none;" d="M64 49L65 50L64 49z"/>
<path style="fill:#9da0a3; stroke:none;" d="M74 49L75 50L74 49M78 49L80 51L78 49M83.3333 49.6667L83.6667 50.3333L83.3333 49.6667M92 49L93 50L92 49M101.333 49.6667L101.667 50.3333L101.333 49.6667z"/>
<path style="fill:#b9bbbe; stroke:none;" d="M111 49L112 50L111 49z"/>
<path style="fill:#6f7378; stroke:none;" d="M112 49L114 52L112 49M116 49L117 50L116 49z"/>
<path style="fill:#9da0a3; stroke:none;" d="M128 49L129 50L128 49z"/>
<path style="fill:#6f7378; stroke:none;" d="M18 50L19 51L18 50z"/>
<path style="fill:#b9bbbe; stroke:none;" d="M28 50L27 52L28 50z"/>
<path style="fill:#6f7378; stroke:none;" d="M29 50L30 51L29 50M33 50L34 51L33 50z"/>
<path style="fill:#b9bbbe; stroke:none;" d="M34 50L35 51L34 50M42 50L43 51L42 50z"/>
<path style="fill:#6f7378; stroke:none;" d="M47 50L49 52L47 50z"/>
<path style="fill:#b9bbbe; stroke:none;" d="M48 50L49 51L48 50z"/>
<path style="fill:#9da0a3; stroke:none;" d="M58 50L59 51L58 50z"/>
<path style="fill:#b9bbbe; stroke:none;" d="M74.3333 50.6667L74.6667 51.3333L74.3333 50.6667z"/>
<path style="fill:#6f7378; stroke:none;" d="M75 50L75 53L76 53L75 50M78 50L79 51L78 50z"/>
<path style="fill:#b9bbbe; stroke:none;" d="M92.3333 50.6667L92.6667 51.3333L92.3333 50.6667z"/>
<path style="fill:#6f7378; stroke:none;" d="M93.3333 50.6667L93.6667 51.3333L93.3333 50.6667z"/>
<path style="fill:#9da0a3; stroke:none;" d="M96.6667 50.3333L97.3333 50.6667L96.6667 50.3333M117 50L118 51L117 50z"/>
<path style="fill:#b9bbbe; stroke:none;" d="M127 50L128 51L127 50z"/>
<path style="fill:#6f7378; stroke:none;" d="M128 50L129 51L128 50z"/>
<path style="fill:#b9bbbe; stroke:none;" d="M133 50L134 51L133 50M140 52L143 51L140 52M153 50L152 52L153 50z"/>
<path style="fill:#6f7378; stroke:none;" d="M154 50L155 51L154 50M158 50L155 55L158 50M19 51L20 52L19 51z"/>
<path style="fill:#b9bbbe; stroke:none;" d="M20 51L21 52L20 51z"/>
<path style="fill:#6f7378; stroke:none;" d="M28 51L29 52L28 51z"/>
<path style="fill:#9da0a3; stroke:none;" d="M33 51L34 52L33 51M43 51L44 52L43 51z"/>
<path style="fill:#b9bbbe; stroke:none;" d="M49 51L50 52L49 51M56 51L57 52L56 51z"/>
<path style="fill:#6f7378; stroke:none;" d="M57 51L58 52L57 51z"/>
<path style="fill:#b9bbbe; stroke:none;" d="M63 51L64 52L63 51z"/>
<path style="fill:#6f7378; stroke:none;" d="M79 51L80 52L79 51M82.3333 51.6667L82.6667 52.3333L82.3333 51.6667z"/>
<path style="fill:#b9bbbe; stroke:none;" d="M83 51L84 52L83 51z"/>
<path style="fill:#6f7378; stroke:none;" d="M96.6667 51.3333L97.3333 51.6667L96.6667 51.3333M100.333 51.6667L100.667 52.3333L100.333 51.6667z"/>
<path style="fill:#b9bbbe; stroke:none;" d="M101.333 51.6667L101.667 52.3333L101.333 51.6667M112 51L113 52L112 51z"/>
<path style="fill:#9da0a3; stroke:none;" d="M118 51L119 52L118 51z"/>
<path style="fill:#b9bbbe; stroke:none;" d="M119 51L120 52L119 51M125 51L126 52L125 51z"/>
<path style="fill:#9da0a3; stroke:none;" d="M126 51L127 52L126 51z"/>
<path style="fill:#6f7378; stroke:none;" d="M127 51L128 52L127 51z"/>
<path style="fill:#9da0a3; stroke:none;" d="M132 51L133 52L132 51z"/>
<path style="fill:#6f7378; stroke:none;" d="M141.667 51.3333L142.333 51.6667L141.667 51.3333z"/>
<path style="fill:#9da0a3; stroke:none;" d="M143 51L144 52L143 51z"/>
<path style="fill:#b9bbbe; stroke:none;" d="M144 51L145 52L144 51z"/>
<path style="fill:#6f7378; stroke:none;" d="M153 51L154 52L153 51M21 52L22 53L21 52z"/>
<path style="fill:#9da0a3; stroke:none;" d="M22 52L22 53L26 53L22 52z"/>
<path style="fill:#6f7378; stroke:none;" d="M26 52L27 53L26 52M32 52L30 55L32 52z"/>
<path style="fill:#b9bbbe; stroke:none;" d="M33 52L34 53L33 52M43 52L46 55L43 52z"/>
<path style="fill:#6f7378; stroke:none;" d="M44 52L45 53L44 52M50 52L51 53L50 52z"/>
<path style="fill:#9da0a3; stroke:none;" d="M51 52L51 53L55 53L51 52z"/>
<path style="fill:#6f7378; stroke:none;" d="M55.6667 52.3333L56.3333 52.6667L55.6667 52.3333z"/>
<path style="fill:#9da0a3; stroke:none;" d="M62 52L63 53L62 52M93.3333 52.6667L93.6667 53.3333L93.3333 52.6667M113 52L114 53L113 52z"/>
<path style="fill:#6f7378; stroke:none;" d="M119.667 52.3333L120.333 52.6667L119.667 52.3333z"/>
<path style="fill:#9da0a3; stroke:none;" d="M121 52L121 53L125 53L121 52z"/>
<path style="fill:#6f7378; stroke:none;" d="M125 52L126 53L125 52M131 52L130 54L131 52z"/>
<path style="fill:#b9bbbe; stroke:none;" d="M132 52L133 53L132 52z"/>
<path style="fill:#9da0a3; stroke:none;" d="M140 52L141 53L140 52z"/>
<path style="fill:#6f7378; stroke:none;" d="M145 52L146 53L145 52z"/>
<path style="fill:#9da0a3; stroke:none;" d="M146 52L146 53L151 53L146 52z"/>
<path style="fill:#6f7378; stroke:none;" d="M151.667 52.3333L152.333 52.6667L151.667 52.3333z"/>
<path style="fill:#b9bbbe; stroke:none;" d="M158 52L159 53L158 52z"/>
<path style="fill:#9da0a3; stroke:none;" d="M15 56L18 53L15 56z"/>
<path style="fill:#6f7378; stroke:none;" d="M18 53L20 55L18 53z"/>
<path style="fill:#b9bbbe; stroke:none;" d="M32 53L33 54L32 53z"/>
<path style="fill:#6f7378; stroke:none;" d="M45 53L46 54L45 53z"/>
<path style="fill:#9da0a3; stroke:none;" d="M61 53L62 54L61 53M75 53L76 54L75 53M82 53L83 54L82 53M100 53L99 56L100 53M114 53L115 54L114 53z"/>
<path style="fill:#b9bbbe; stroke:none;" d="M131 53L132 54L131 53z"/>
<path style="fill:#6f7378; stroke:none;" d="M140 53L142 55L140 53z"/>
<path style="fill:#b9bbbe; stroke:none;" d="M157 53L158 54L157 53M18 54L19 55L18 54M31 54L32 55L31 54z"/>
<path style="fill:#9da0a3; stroke:none;" d="M46 54L47 55L46 54z"/>
<path style="fill:#6f7378; stroke:none;" d="M59 54L60 55L59 54z"/>
<path style="fill:#b9bbbe; stroke:none;" d="M60 54L61 55L60 54M75 54L76 55L75 54z"/>
<path style="fill:#6f7378; stroke:none;" d="M76 54L76 55L81 56L81 55L76 54z"/>
<path style="fill:#b9bbbe; stroke:none;" d="M82 54L83 55L82 54M93 54L94 55L93 54z"/>
<path style="fill:#6f7378; stroke:none;" d="M94 54L94 55L99 56L99 55L94 54z"/>
<path style="fill:#b9bbbe; stroke:none;" d="M115 54L117 56L115 54z"/>
<path style="fill:#6f7378; stroke:none;" d="M116 54L117 55L116 54z"/>
<path style="fill:#9da0a3; stroke:none;" d="M129 54L130 55L129 54z"/>
<path style="fill:#b9bbbe; stroke:none;" d="M130 54L131 55L130 54M140 54L141 55L140 54M156 54L157 55L156 54M12 55L13 56L12 55M16 55L17 56L16 55M19 55L20 56L19 55z"/>
<path style="fill:#9da0a3; stroke:none;" d="M20 55L21 56L20 55z"/>
<path style="fill:#6f7378; stroke:none;" d="M21 55L22 56L21 55M27.6667 55.3333L28.3333 55.6667L27.6667 55.3333z"/>
<path style="fill:#9da0a3; stroke:none;" d="M29 55L30 56L29 55z"/>
<path style="fill:#b9bbbe; stroke:none;" d="M47 55L48 56L47 55z"/>
<path style="fill:#6f7378; stroke:none;" d="M48.6667 55.3333L49.3333 55.6667L48.6667 55.3333M56.6667 55.3333L57.3333 55.6667L56.6667 55.3333z"/>
<path style="fill:#9da0a3; stroke:none;" d="M58 55L59 56L58 55z"/>
<path style="fill:#b9bbbe; stroke:none;" d="M59 55L60 56L59 55z"/>
<path style="fill:#9da0a3; stroke:none;" d="M76 55L77 56L76 55M81 55L82 56L81 55M94 55L95 56L94 55z"/>
<path style="fill:#b9bbbe; stroke:none;" d="M100 55L101 56L100 55z"/>
<path style="fill:#9da0a3; stroke:none;" d="M117 55L118 56L117 55z"/>
<path style="fill:#6f7378; stroke:none;" d="M118.667 55.3333L119.333 55.6667L118.667 55.3333M126.667 55.3333L127.333 55.6667L126.667 55.3333z"/>
<path style="fill:#b9bbbe; stroke:none;" d="M128 55L129 56L128 55M142 55L143 56L142 55z"/>
<path style="fill:#6f7378; stroke:none;" d="M143.667 55.3333L144.333 55.6667L143.667 55.3333M152.667 55.3333L153.333 55.6667L152.667 55.3333z"/>
<path style="fill:#9da0a3; stroke:none;" d="M154 55L155 56L154 55z"/>
<path style="fill:#b9bbbe; stroke:none;" d="M155 55L156 56L155 55M166 55L167 56L166 55z"/>
<path style="fill:#9da0a3; stroke:none;" d="M170 55L171 56L170 55z"/>
<path style="fill:#b9bbbe; stroke:none;" d="M183 55L184 56L183 55z"/>
<path style="fill:#6f7378; stroke:none;" d="M185.667 55.3333L186.333 55.6667L185.667 55.3333z"/>
<path style="fill:#9da0a3; stroke:none;" d="M187 55L188 56L187 55z"/>
<path style="fill:#b9bbbe; stroke:none;" d="M21 56L22 57L21 56z"/>
<path style="fill:#9da0a3; stroke:none;" d="M22.6667 56.3333L23.3333 56.6667L22.6667 56.3333z"/>
<path style="fill:#6f7378; stroke:none;" d="M24 56L25 57L24 56z"/>
<path style="fill:#9da0a3; stroke:none;" d="M25.6667 56.3333L26.3333 56.6667L25.6667 56.3333z"/>
<path style="fill:#b9bbbe; stroke:none;" d="M27 56L28 57L27 56M49.6667 56.3333L50.3333 56.6667L49.6667 56.3333z"/>
<path style="fill:#9da0a3; stroke:none;" d="M51 56L52 57L51 56z"/>
<path style="fill:#6f7378; stroke:none;" d="M52.6667 56.3333L53.3333 56.6667L52.6667 56.3333z"/>
<path style="fill:#9da0a3; stroke:none;" d="M54.6667 56.3333L55.3333 56.6667L54.6667 56.3333z"/>
<path style="fill:#b9bbbe; stroke:none;" d="M56 56L57 57L56 56M119 56L120 57L119 56z"/>
<path style="fill:#9da0a3; stroke:none;" d="M120.667 56.3333L121.333 56.6667L120.667 56.3333z"/>
<path style="fill:#6f7378; stroke:none;" d="M122 56L123 57L122 56z"/>
<path style="fill:#9da0a3; stroke:none;" d="M123.667 56.3333L124.333 56.6667L123.667 56.3333z"/>
<path style="fill:#b9bbbe; stroke:none;" d="M125.667 56.3333L126.333 56.6667L125.667 56.3333M145 56L146 57L145 56z"/>
<path style="fill:#9da0a3; stroke:none;" d="M146.667 56.3333L147.333 56.6667L146.667 56.3333z"/>
<path style="fill:#6f7378; stroke:none;" d="M148.667 56.3333L149.333 56.6667L148.667 56.3333z"/>
<path style="fill:#9da0a3; stroke:none;" d="M150 56L151 57L150 56z"/>
<path style="fill:#b9bbbe; stroke:none;" d="M151.667 56.3333L152.333 56.6667L151.667 56.3333z"/>
</svg>
